<?xml version="1.0" encoding="UTF-8" standalone="no"?>
<!DOCTYPE svg PUBLIC "-//W3C//DTD SVG 1.1//EN"
 "http://www.w3.org/Graphics/SVG/1.1/DTD/svg11.dtd">
<!-- Generated by graphviz version 14.1.1 (20251213.1925)
 -->
<!-- Title: G Pages: 1 -->
<svg width="920pt" height="409pt"
 viewBox="0.00 0.00 920.00 409.00" xmlns="http://www.w3.org/2000/svg" xmlns:xlink="http://www.w3.org/1999/xlink">
<g id="graph0" class="graph" transform="scale(1 1) rotate(0) translate(14.4 394.9)">
<title>G</title>
<polygon fill="white" stroke="none" points="-14.4,14.4 -14.4,-394.9 905.65,-394.9 905.65,14.4 -14.4,14.4"/>
<text xml:space="preserve" text-anchor="middle" x="445.62" y="-355.6" font-family="Helvetica,sans-Serif" font-weight="bold" font-size="22.00">Cross&#45;service dependency neighborhood</text>
<!-- workflow -->
<g id="node1" class="node">
<title>workflow</title>
<path fill="#93c5fd" stroke="#334155" stroke-width="1.3" d="M368.75,-236C368.75,-236 277,-236 277,-236 271,-236 265,-230 265,-224 265,-224 265,-212 265,-212 265,-206 271,-200 277,-200 277,-200 368.75,-200 368.75,-200 374.75,-200 380.75,-206 380.75,-212 380.75,-212 380.75,-224 380.75,-224 380.75,-230 374.75,-236 368.75,-236"/>
<text xml:space="preserve" text-anchor="middle" x="322.88" y="-212.2" font-family="Helvetica,sans-Serif" font-size="14.00">workflow&#45;service</text>
</g>
<!-- asset -->
<g id="node2" class="node">
<title>asset</title>
<path fill="#93c5fd" stroke="#334155" stroke-width="1.3" d="M633.38,-336C633.38,-336 561.88,-336 561.88,-336 555.88,-336 549.88,-330 549.88,-324 549.88,-324 549.88,-312 549.88,-312 549.88,-306 555.88,-300 561.88,-300 561.88,-300 633.38,-300 633.38,-300 639.38,-300 645.38,-306 645.38,-312 645.38,-312 645.38,-324 645.38,-324 645.38,-330 639.38,-336 633.38,-336"/>
<text xml:space="preserve" text-anchor="middle" x="597.62" y="-312.2" font-family="Helvetica,sans-Serif" font-size="14.00">asset&#45;service</text>
</g>
<!-- workflow&#45;&gt;asset -->
<g id="edge1" class="edge">
<title>workflow&#45;&gt;asset</title>
<path fill="none" stroke="#dc2626" stroke-width="3" d="M367.61,-236.49C383.06,-242.86 400.61,-249.92 416.75,-256 456.53,-270.98 501.78,-286.57 536.93,-298.37"/>
<polygon fill="#dc2626" stroke="#dc2626" stroke-width="3" points="535.56,-301.23 545.1,-301.09 537.56,-295.25 535.56,-301.23"/>
<text xml:space="preserve" text-anchor="middle" x="461" y="-289.05" font-family="Helvetica,sans-Serif" font-size="11.00">getValuation()</text>
</g>
<!-- lead -->
<g id="node3" class="node">
<title>lead</title>
<path fill="#86efac" stroke="#334155" stroke-width="1.3" d="M630,-158C630,-158 565.25,-158 565.25,-158 559.25,-158 553.25,-152 553.25,-146 553.25,-146 553.25,-134 553.25,-134 553.25,-128 559.25,-122 565.25,-122 565.25,-122 630,-122 630,-122 636,-122 642,-128 642,-134 642,-134 642,-146 642,-146 642,-152 636,-158 630,-158"/>
<text xml:space="preserve" text-anchor="middle" x="597.62" y="-134.2" font-family="Helvetica,sans-Serif" font-size="14.00">lead&#45;service</text>
</g>
<!-- workflow&#45;&gt;lead -->
<g id="edge3" class="edge">
<title>workflow&#45;&gt;lead</title>
<path fill="none" stroke="#2563eb" stroke-width="2" d="M350.67,-199.5C368.59,-188.04 393.12,-174.01 416.75,-166 457.02,-152.34 504.74,-145.86 540.91,-142.78"/>
<polygon fill="#2563eb" stroke="#2563eb" stroke-width="2" points="540.95,-145.94 549.68,-142.1 540.46,-139.66 540.95,-145.94"/>
<text xml:space="preserve" text-anchor="middle" x="461" y="-167.55" font-family="Helvetica,sans-Serif" font-size="11.00">application context</text>
</g>
<!-- decision -->
<g id="node7" class="node">
<title>decision</title>
<path fill="#e2e8f0" stroke="#334155" stroke-width="1.3" d="M642,-36C642,-36 553.25,-36 553.25,-36 547.25,-36 541.25,-30 541.25,-24 541.25,-24 541.25,-12 541.25,-12 541.25,-6 547.25,0 553.25,0 553.25,0 642,0 642,0 648,0 654,-6 654,-12 654,-12 654,-24 654,-24 654,-30 648,-36 642,-36"/>
<text xml:space="preserve" text-anchor="middle" x="597.62" y="-12.2" font-family="Helvetica,sans-Serif" font-size="14.00">decision&#45;service</text>
</g>
<!-- workflow&#45;&gt;decision -->
<g id="edge7" class="edge">
<title>workflow&#45;&gt;decision</title>
<path fill="none" stroke="#64748b" stroke-width="1.6" d="M332.28,-199.42C346.05,-170.96 376,-116.55 416.75,-85 449.82,-59.39 493.7,-42.79 529.85,-32.52"/>
<polygon fill="#64748b" stroke="#64748b" stroke-width="1.6" points="530.6,-35.57 538.46,-30.17 528.94,-29.5 530.6,-35.57"/>
<text xml:space="preserve" text-anchor="middle" x="461" y="-86.55" font-family="Helvetica,sans-Serif" font-size="11.00">decision request</text>
</g>
<!-- asset&#45;&gt;workflow -->
<g id="edge2" class="edge">
<title>asset&#45;&gt;workflow</title>
<path fill="none" stroke="#dc2626" stroke-width="3" d="M580.85,-299.6C564.09,-281.41 535.84,-254.41 505.25,-241 470.73,-225.87 429.22,-219.82 394.62,-217.69"/>
<polygon fill="#dc2626" stroke="#dc2626" stroke-width="3" points="394.92,-214.56 385.77,-217.26 394.61,-220.85 394.92,-214.56"/>
<text xml:space="preserve" text-anchor="middle" x="461" y="-242.55" font-family="Helvetica,sans-Serif" font-size="11.00">getRiskBucket()</text>
</g>
<!-- partner -->
<g id="node5" class="node">
<title>partner</title>
<path fill="#fed7aa" stroke="#334155" stroke-width="1.3" d="M879.25,-336C879.25,-336 797.25,-336 797.25,-336 791.25,-336 785.25,-330 785.25,-324 785.25,-324 785.25,-312 785.25,-312 785.25,-306 791.25,-300 797.25,-300 797.25,-300 879.25,-300 879.25,-300 885.25,-300 891.25,-306 891.25,-312 891.25,-312 891.25,-324 891.25,-324 891.25,-330 885.25,-336 879.25,-336"/>
<text xml:space="preserve" text-anchor="middle" x="838.25" y="-312.2" font-family="Helvetica,sans-Serif" font-size="14.00">partner&#45;service</text>
</g>
<!-- asset&#45;&gt;partner -->
<g id="edge8" class="edge">
<title>asset&#45;&gt;partner</title>
<path fill="none" stroke="#64748b" stroke-width="1.6" d="M645.77,-318C682.32,-318 733.33,-318 773.52,-318"/>
<polygon fill="#64748b" stroke="#64748b" stroke-width="1.6" points="773.39,-321.15 782.39,-318 773.39,-314.85 773.39,-321.15"/>
<text xml:space="preserve" text-anchor="middle" x="719.62" y="-319.55" font-family="Helvetica,sans-Serif" font-size="11.00">partner sync</text>
</g>
<!-- lead&#45;&gt;workflow -->
<g id="edge4" class="edge">
<title>lead&#45;&gt;workflow</title>
<path fill="none" stroke="#2563eb" stroke-width="2" d="M552.68,-123.64C515.1,-112.34 460.36,-102.38 416.75,-121 384.25,-134.88 357.68,-166.33 341.41,-189.67"/>
<polygon fill="#2563eb" stroke="#2563eb" stroke-width="2" points="338.95,-187.68 336.56,-196.91 344.19,-191.18 338.95,-187.68"/>
<text xml:space="preserve" text-anchor="middle" x="461" y="-122.55" font-family="Helvetica,sans-Serif" font-size="11.00">status callback</text>
</g>
<!-- gateway -->
<g id="node4" class="node">
<title>gateway</title>
<path fill="#fde68a" stroke="#334155" stroke-width="1.3" d="M92.12,-350C92.12,-350 27.38,-350 27.38,-350 21.38,-350 15.38,-344 15.38,-338 15.38,-338 15.38,-326 15.38,-326 15.38,-320 21.38,-314 27.38,-314 27.38,-314 92.12,-314 92.12,-314 98.12,-314 104.12,-320 104.12,-326 104.12,-326 104.12,-338 104.12,-338 104.12,-344 98.12,-350 92.12,-350"/>
<text xml:space="preserve" text-anchor="middle" x="59.75" y="-326.2" font-family="Helvetica,sans-Serif" font-size="14.00">api&#45;gateway</text>
</g>
<!-- gateway&#45;&gt;workflow -->
<g id="edge5" class="edge">
<title>gateway&#45;&gt;workflow</title>
<path fill="none" stroke="#64748b" stroke-width="1.6" d="M103.29,-313.43C148.52,-293.68 220.15,-262.41 268.99,-241.09"/>
<polygon fill="#64748b" stroke="#64748b" stroke-width="1.6" points="270.15,-244.02 277.14,-237.53 267.63,-238.24 270.15,-244.02"/>
<text xml:space="preserve" text-anchor="middle" x="192.25" y="-290.11" font-family="Helvetica,sans-Serif" font-size="11.00">startWorkflow()</text>
</g>
<!-- gateway&#45;&gt;asset -->
<g id="edge6" class="edge">
<title>gateway&#45;&gt;asset</title>
<path fill="none" stroke="#64748b" stroke-width="1.6" d="M104.6,-330.85C200.71,-328.34 429.94,-322.35 538.16,-319.53"/>
<polygon fill="#64748b" stroke="#64748b" stroke-width="1.6" points="538.16,-322.68 547.07,-319.29 537.99,-316.38 538.16,-322.68"/>
<text xml:space="preserve" text-anchor="middle" x="322.88" y="-328.17" font-family="Helvetica,sans-Serif" font-size="11.00">asset lookup</text>
</g>
<!-- customer -->
<g id="node6" class="node">
<title>customer</title>
<path fill="#fbcfe8" stroke="#334155" stroke-width="1.3" d="M107.5,-236C107.5,-236 12,-236 12,-236 6,-236 0,-230 0,-224 0,-224 0,-212 0,-212 0,-206 6,-200 12,-200 12,-200 107.5,-200 107.5,-200 113.5,-200 119.5,-206 119.5,-212 119.5,-212 119.5,-224 119.5,-224 119.5,-230 113.5,-236 107.5,-236"/>
<text xml:space="preserve" text-anchor="middle" x="59.75" y="-212.2" font-family="Helvetica,sans-Serif" font-size="14.00">customer&#45;service</text>
</g>
<!-- customer&#45;&gt;workflow -->
<g id="edge9" class="edge">
<title>customer&#45;&gt;workflow</title>
<path fill="none" stroke="#64748b" stroke-width="1.6" d="M120,-218C159.62,-218 211.86,-218 253.28,-218"/>
<polygon fill="#64748b" stroke="#64748b" stroke-width="1.6" points="253.23,-221.15 262.23,-218 253.23,-214.85 253.23,-221.15"/>
<text xml:space="preserve" text-anchor="middle" x="192.25" y="-219.55" font-family="Helvetica,sans-Serif" font-size="11.00">profile context</text>
</g>
</g>
</svg>
