<?xml version="1.0" encoding="UTF-8" standalone="no"?>
<!DOCTYPE svg PUBLIC "-//W3C//DTD SVG 1.1//EN"
 "http://www.w3.org/Graphics/SVG/1.1/DTD/svg11.dtd">
<!-- Generated by graphviz version 14.1.1 (20251213.1925)
 -->
<!-- Title: G Pages: 1 -->
<svg width="666pt" height="479pt"
 viewBox="0.00 0.00 666.00 479.00" xmlns="http://www.w3.org/2000/svg" xmlns:xlink="http://www.w3.org/1999/xlink">
<g id="graph0" class="graph" transform="scale(1 1) rotate(0) translate(14.4 464.9)">
<title>G</title>
<polygon fill="white" stroke="none" points="-14.4,14.4 -14.4,-464.9 651.15,-464.9 651.15,14.4 -14.4,14.4"/>
<text xml:space="preserve" text-anchor="middle" x="318.38" y="-425.6" font-family="Helvetica,sans-Serif" font-weight="bold" font-size="22.00">Inter&#45;service dependency graph</text>
<!-- gateway -->
<g id="node1" class="node">
<title>gateway</title>
<path fill="#fde68a" stroke="#334155" stroke-width="1.3" d="M293.12,-420C293.12,-420 228.38,-420 228.38,-420 222.38,-420 216.38,-414 216.38,-408 216.38,-408 216.38,-396 216.38,-396 216.38,-390 222.38,-384 228.38,-384 228.38,-384 293.12,-384 293.12,-384 299.12,-384 305.12,-390 305.12,-396 305.12,-396 305.12,-408 305.12,-408 305.12,-414 299.12,-420 293.12,-420"/>
<text xml:space="preserve" text-anchor="middle" x="260.75" y="-396.2" font-family="Helvetica,sans-Serif" font-size="14.00">api&#45;gateway</text>
</g>
<!-- workflow -->
<g id="node2" class="node">
<title>workflow</title>
<path fill="#93c5fd" stroke="#334155" stroke-width="1.3" d="M391.62,-300C391.62,-300 299.88,-300 299.88,-300 293.88,-300 287.88,-294 287.88,-288 287.88,-288 287.88,-276 287.88,-276 287.88,-270 293.88,-264 299.88,-264 299.88,-264 391.62,-264 391.62,-264 397.62,-264 403.62,-270 403.62,-276 403.62,-276 403.62,-288 403.62,-288 403.62,-294 397.62,-300 391.62,-300"/>
<text xml:space="preserve" text-anchor="middle" x="345.75" y="-276.2" font-family="Helvetica,sans-Serif" font-size="14.00">workflow&#45;service</text>
</g>
<!-- gateway&#45;&gt;workflow -->
<g id="edge1" class="edge">
<title>gateway&#45;&gt;workflow</title>
<path fill="none" stroke="#64748b" stroke-width="1.4" d="M273.29,-383.59C287.42,-363.98 310.52,-331.9 326.84,-309.25"/>
<polygon fill="#64748b" stroke="#64748b" stroke-width="1.4" points="329.21,-311.35 331.92,-302.2 324.1,-307.66 329.21,-311.35"/>
<text xml:space="preserve" text-anchor="middle" x="320.42" y="-337.55" font-family="Helvetica,sans-Serif" font-size="11.00">HTTP</text>
</g>
<!-- customer -->
<g id="node3" class="node">
<title>customer</title>
<path fill="#fbcfe8" stroke="#334155" stroke-width="1.3" d="M107.5,-228C107.5,-228 12,-228 12,-228 6,-228 0,-222 0,-216 0,-216 0,-204 0,-204 0,-198 6,-192 12,-192 12,-192 107.5,-192 107.5,-192 113.5,-192 119.5,-198 119.5,-204 119.5,-204 119.5,-216 119.5,-216 119.5,-222 113.5,-228 107.5,-228"/>
<text xml:space="preserve" text-anchor="middle" x="59.75" y="-204.2" font-family="Helvetica,sans-Serif" font-size="14.00">customer&#45;service</text>
</g>
<!-- gateway&#45;&gt;customer -->
<g id="edge2" class="edge">
<title>gateway&#45;&gt;customer</title>
<path fill="none" stroke="#64748b" stroke-width="1.4" d="M215.97,-392.58C186.9,-385.12 149.85,-371.62 124.5,-348 92.62,-318.29 74.88,-269.66 66.34,-239.04"/>
<polygon fill="#64748b" stroke="#64748b" stroke-width="1.4" points="69.48,-238.59 64.14,-230.69 63.39,-240.2 69.48,-238.59"/>
<text xml:space="preserve" text-anchor="middle" x="139.12" y="-337.55" font-family="Helvetica,sans-Serif" font-size="11.00">HTTP</text>
</g>
<!-- asset -->
<g id="node4" class="node">
<title>asset</title>
<path fill="#93c5fd" stroke="#334155" stroke-width="1.3" d="M508.5,-156C508.5,-156 437,-156 437,-156 431,-156 425,-150 425,-144 425,-144 425,-132 425,-132 425,-126 431,-120 437,-120 437,-120 508.5,-120 508.5,-120 514.5,-120 520.5,-126 520.5,-132 520.5,-132 520.5,-144 520.5,-144 520.5,-150 514.5,-156 508.5,-156"/>
<text xml:space="preserve" text-anchor="middle" x="472.75" y="-132.2" font-family="Helvetica,sans-Serif" font-size="14.00">asset&#45;service</text>
</g>
<!-- gateway&#45;&gt;asset -->
<g id="edge3" class="edge">
<title>gateway&#45;&gt;asset</title>
<path fill="none" stroke="#64748b" stroke-width="1.4" d="M303.54,-383.41C340.46,-366.49 393.29,-337.9 428.75,-300 453.33,-273.73 455.93,-262.61 465.75,-228 471.35,-208.28 473.03,-185.18 473.35,-167.46"/>
<polygon fill="#64748b" stroke="#64748b" stroke-width="1.4" points="476.5,-167.55 473.38,-158.54 470.2,-167.52 476.5,-167.55"/>
<text xml:space="preserve" text-anchor="middle" x="468.69" y="-277.55" font-family="Helvetica,sans-Serif" font-size="11.00">HTTP</text>
</g>
<!-- workflow&#45;&gt;asset -->
<g id="edge5" class="edge">
<title>workflow&#45;&gt;asset</title>
<path fill="none" stroke="#64748b" stroke-width="1.4" d="M361.32,-263.59C383.51,-238.78 424.35,-193.11 449.95,-164.49"/>
<polygon fill="#64748b" stroke="#64748b" stroke-width="1.4" points="451.99,-166.94 455.64,-158.13 447.29,-162.74 451.99,-166.94"/>
<text xml:space="preserve" text-anchor="middle" x="438.98" y="-205.55" font-family="Helvetica,sans-Serif" font-size="11.00">HTTP</text>
</g>
<!-- decision -->
<g id="node5" class="node">
<title>decision</title>
<path fill="#86efac" stroke="#334155" stroke-width="1.3" d="M390.12,-36C390.12,-36 301.38,-36 301.38,-36 295.38,-36 289.38,-30 289.38,-24 289.38,-24 289.38,-12 289.38,-12 289.38,-6 295.38,0 301.38,0 301.38,0 390.12,0 390.12,0 396.12,0 402.12,-6 402.12,-12 402.12,-12 402.12,-24 402.12,-24 402.12,-30 396.12,-36 390.12,-36"/>
<text xml:space="preserve" text-anchor="middle" x="345.75" y="-12.2" font-family="Helvetica,sans-Serif" font-size="14.00">decision&#45;service</text>
</g>
<!-- workflow&#45;&gt;decision -->
<g id="edge4" class="edge">
<title>workflow&#45;&gt;decision</title>
<path fill="none" stroke="#64748b" stroke-width="1.4" d="M345.75,-263.4C345.75,-218.94 345.75,-101.75 345.75,-47.41"/>
<polygon fill="#64748b" stroke="#64748b" stroke-width="1.4" points="348.9,-47.64 345.75,-38.64 342.6,-47.64 348.9,-47.64"/>
<text xml:space="preserve" text-anchor="middle" x="360.38" y="-133.55" font-family="Helvetica,sans-Serif" font-size="11.00">HTTP</text>
</g>
<!-- notify -->
<g id="node6" class="node">
<title>notify</title>
<path fill="#fdba74" stroke="#334155" stroke-width="1.3" d="M233.62,-156C233.62,-156 129.88,-156 129.88,-156 123.88,-156 117.88,-150 117.88,-144 117.88,-144 117.88,-132 117.88,-132 117.88,-126 123.88,-120 129.88,-120 129.88,-120 233.62,-120 233.62,-120 239.62,-120 245.62,-126 245.62,-132 245.62,-132 245.62,-144 245.62,-144 245.62,-150 239.62,-156 233.62,-156"/>
<text xml:space="preserve" text-anchor="middle" x="181.75" y="-132.2" font-family="Helvetica,sans-Serif" font-size="14.00">notification&#45;service</text>
</g>
<!-- workflow&#45;&gt;notify -->
<g id="edge6" class="edge">
<title>workflow&#45;&gt;notify</title>
<path fill="none" stroke="#64748b" stroke-width="1.4" d="M324.16,-263.54C311.61,-253.3 295.55,-240.05 281.5,-228 256.69,-206.71 228.98,-181.9 209.07,-163.89"/>
<polygon fill="#64748b" stroke="#64748b" stroke-width="1.4" points="211.4,-161.75 202.62,-158.04 207.17,-166.42 211.4,-161.75"/>
<text xml:space="preserve" text-anchor="middle" x="294.62" y="-205.55" font-family="Helvetica,sans-Serif" font-size="11.00">event</text>
</g>
<!-- customer&#45;&gt;decision -->
<g id="edge7" class="edge">
<title>customer&#45;&gt;decision</title>
<path fill="none" stroke="#64748b" stroke-width="1.4" d="M55.17,-191.4C51.22,-171.96 48.28,-140.67 63.5,-120 113.04,-52.71 211.47,-30.1 277.97,-22.59"/>
<polygon fill="#64748b" stroke="#64748b" stroke-width="1.4" points="278.03,-25.75 286.66,-21.69 277.38,-19.48 278.03,-25.75"/>
<text xml:space="preserve" text-anchor="middle" x="78.12" y="-133.55" font-family="Helvetica,sans-Serif" font-size="11.00">HTTP</text>
</g>
<!-- asset&#45;&gt;decision -->
<g id="edge8" class="edge">
<title>asset&#45;&gt;decision</title>
<path fill="none" stroke="#64748b" stroke-width="1.4" d="M454.01,-119.59C432.44,-99.54 396.84,-66.47 372.39,-43.76"/>
<polygon fill="#64748b" stroke="#64748b" stroke-width="1.4" points="374.86,-41.74 366.12,-37.93 370.57,-46.36 374.86,-41.74"/>
<text xml:space="preserve" text-anchor="middle" x="427.68" y="-73.55" font-family="Helvetica,sans-Serif" font-size="11.00">HTTP</text>
</g>
<!-- partner -->
<g id="node7" class="node">
<title>partner</title>
<path fill="#fed7aa" stroke="#334155" stroke-width="1.3" d="M624.75,-36C624.75,-36 542.75,-36 542.75,-36 536.75,-36 530.75,-30 530.75,-24 530.75,-24 530.75,-12 530.75,-12 530.75,-6 536.75,0 542.75,0 542.75,0 624.75,0 624.75,0 630.75,0 636.75,-6 636.75,-12 636.75,-12 636.75,-24 636.75,-24 636.75,-30 630.75,-36 624.75,-36"/>
<text xml:space="preserve" text-anchor="middle" x="583.75" y="-12.2" font-family="Helvetica,sans-Serif" font-size="14.00">partner&#45;service</text>
</g>
<!-- asset&#45;&gt;partner -->
<g id="edge9" class="edge">
<title>asset&#45;&gt;partner</title>
<path fill="none" stroke="#64748b" stroke-width="1.4" d="M489.13,-119.59C507.82,-99.72 538.55,-67.05 559.9,-44.35"/>
<polygon fill="#64748b" stroke="#64748b" stroke-width="1.4" points="561.98,-46.74 565.85,-38.03 557.39,-42.42 561.98,-46.74"/>
<text xml:space="preserve" text-anchor="middle" x="546.2" y="-73.55" font-family="Helvetica,sans-Serif" font-size="11.00">HTTP</text>
</g>
<!-- notify&#45;&gt;gateway -->
<g id="edge11" class="edge">
<title>notify&#45;&gt;gateway</title>
<path fill="none" stroke="#64748b" stroke-width="1.4" d="M187.03,-156.52C200.44,-201 235.9,-318.58 252.26,-372.83"/>
<polygon fill="#64748b" stroke="#64748b" stroke-width="1.4" points="249.22,-373.67 254.83,-381.37 255.25,-371.85 249.22,-373.67"/>
<text xml:space="preserve" text-anchor="middle" x="243.35" y="-277.55" font-family="Helvetica,sans-Serif" font-size="11.00">status</text>
</g>
<!-- partner&#45;&gt;workflow -->
<g id="edge10" class="edge">
<title>partner&#45;&gt;workflow</title>
<path fill="none" stroke="#64748b" stroke-width="1.4" d="M582.49,-36.51C579.77,-64.12 571.33,-118.47 545.75,-156 511.98,-205.54 451.41,-239.3 405.74,-259.13"/>
<polygon fill="#64748b" stroke="#64748b" stroke-width="1.4" points="404.67,-256.16 397.61,-262.57 407.13,-261.97 404.67,-256.16"/>
<text xml:space="preserve" text-anchor="middle" x="585.12" y="-133.55" font-family="Helvetica,sans-Serif" font-size="11.00">webhook</text>
</g>
</g>
</svg>
