<?xml version="1.0" encoding="UTF-8" standalone="no"?>
<!DOCTYPE svg PUBLIC "-//W3C//DTD SVG 1.1//EN"
 "http://www.w3.org/Graphics/SVG/1.1/DTD/svg11.dtd">
<!-- Generated by graphviz version 14.1.1 (20251213.1925)
 -->
<!-- Title: G Pages: 1 -->
<svg width="1491pt" height="355pt"
 viewBox="0.00 0.00 1491.00 355.00" xmlns="http://www.w3.org/2000/svg" xmlns:xlink="http://www.w3.org/1999/xlink">
<g id="graph0" class="graph" transform="scale(1 1) rotate(0) translate(18 336.5)">
<title>G</title>
<polygon fill="white" stroke="none" points="-18,18 -18,-336.5 1473,-336.5 1473,18 -18,18"/>
<text xml:space="preserve" text-anchor="middle" x="727.5" y="-293.6" font-family="Helvetica,sans-Serif" font-weight="bold" font-size="22.00">Intra&#45;service workflow path</text>
<!-- c1 -->
<g id="node1" class="node">
<title>c1</title>
<path fill="#fde68a" stroke="#334155" stroke-width="1.2" d="M213.6,-159C213.6,-159 12,-159 12,-159 6,-159 0,-153 0,-147 0,-147 0,-135 0,-135 0,-129 6,-123 12,-123 12,-123 213.6,-123 213.6,-123 219.6,-123 225.6,-129 225.6,-135 225.6,-135 225.6,-147 225.6,-147 225.6,-153 219.6,-159 213.6,-159"/>
<text xml:space="preserve" text-anchor="middle" x="112.8" y="-135.4" font-family="Helvetica,sans-Serif" font-size="13.00">WorkflowController.startWorkflow()</text>
</g>
<!-- f1 -->
<g id="node2" class="node">
<title>f1</title>
<path fill="#fca5a5" stroke="#334155" stroke-width="1.2" d="M497.7,-159C497.7,-159 309.6,-159 309.6,-159 303.6,-159 297.6,-153 297.6,-147 297.6,-147 297.6,-135 297.6,-135 297.6,-129 303.6,-123 309.6,-123 309.6,-123 497.7,-123 497.7,-123 503.7,-123 509.7,-129 509.7,-135 509.7,-135 509.7,-147 509.7,-147 509.7,-153 503.7,-159 497.7,-159"/>
<text xml:space="preserve" text-anchor="middle" x="403.65" y="-135.4" font-family="Helvetica,sans-Serif" font-size="13.00">WorkflowFactory.startWorkflow()</text>
</g>
<!-- c1&#45;&gt;f1 -->
<g id="edge1" class="edge">
<title>c1&#45;&gt;f1</title>
<path fill="none" stroke="#475569" stroke-width="1.2" d="M226.08,-141C226.08,-141 287.52,-141 287.52,-141"/>
<polygon fill="#475569" stroke="#475569" stroke-width="1.2" points="287.52,-143.8 295.52,-141 287.52,-138.2 287.52,-143.8"/>
</g>
<!-- v2 -->
<g id="node3" class="node">
<title>v2</title>
<path fill="#93c5fd" stroke="#334155" stroke-width="1.2" d="M1145.77,-204C1145.77,-204 925.42,-204 925.42,-204 919.42,-204 913.42,-198 913.42,-192 913.42,-192 913.42,-180 913.42,-180 913.42,-174 919.42,-168 925.42,-168 925.42,-168 1145.77,-168 1145.77,-168 1151.77,-168 1157.77,-174 1157.77,-180 1157.77,-180 1157.77,-192 1157.77,-192 1157.77,-198 1151.77,-204 1145.77,-204"/>
<text xml:space="preserve" text-anchor="middle" x="1035.6" y="-180.4" font-family="Helvetica,sans-Serif" font-size="13.00">WorkflowExecution.startWorkflowV2()</text>
</g>
<!-- f1&#45;&gt;v2 -->
<g id="edge2" class="edge">
<title>f1&#45;&gt;v2</title>
<path fill="none" stroke="#dc2626" stroke-width="2" d="M404,-159.56C404,-171.96 404,-186 404,-186 404,-186 902.05,-186 902.05,-186"/>
<polygon fill="#dc2626" stroke="#dc2626" stroke-width="2" points="902.05,-188.8 910.05,-186 902.05,-183.2 902.05,-188.8"/>
</g>
<!-- v3 -->
<g id="node4" class="node">
<title>v3</title>
<path fill="#93c5fd" stroke="#334155" stroke-width="1.2" d="M814.05,-115C814.05,-115 593.7,-115 593.7,-115 587.7,-115 581.7,-109 581.7,-103 581.7,-103 581.7,-91 581.7,-91 581.7,-85 587.7,-79 593.7,-79 593.7,-79 814.05,-79 814.05,-79 820.05,-79 826.05,-85 826.05,-91 826.05,-91 826.05,-103 826.05,-103 826.05,-109 820.05,-115 814.05,-115"/>
<text xml:space="preserve" text-anchor="middle" x="703.87" y="-91.4" font-family="Helvetica,sans-Serif" font-size="13.00">WorkflowExecution.startWorkflowV3()</text>
</g>
<!-- f1&#45;&gt;v3 -->
<g id="edge3" class="edge">
<title>f1&#45;&gt;v3</title>
<path fill="none" stroke="#dc2626" stroke-width="2" d="M404,-122.59C404,-110.54 404,-97 404,-97 404,-97 570.44,-97 570.44,-97"/>
<polygon fill="#dc2626" stroke="#dc2626" stroke-width="2" points="570.44,-99.8 578.44,-97 570.44,-94.2 570.44,-99.8"/>
</g>
<!-- d1 -->
<g id="node7" class="node">
<title>d1</title>
<path fill="#86efac" stroke="#334155" stroke-width="1.2" d="M1423.5,-122C1423.5,-122 1276.65,-122 1276.65,-122 1270.65,-122 1264.65,-116 1264.65,-110 1264.65,-110 1264.65,-98 1264.65,-98 1264.65,-92 1270.65,-86 1276.65,-86 1276.65,-86 1423.5,-86 1423.5,-86 1429.5,-86 1435.5,-92 1435.5,-98 1435.5,-98 1435.5,-110 1435.5,-110 1435.5,-116 1429.5,-122 1423.5,-122"/>
<text xml:space="preserve" text-anchor="middle" x="1350.07" y="-98.4" font-family="Helvetica,sans-Serif" font-size="13.00">DecisionPlugin.execute()</text>
</g>
<!-- v2&#45;&gt;d1 -->
<g id="edge6" class="edge">
<title>v2&#45;&gt;d1</title>
<path fill="none" stroke="#16a34a" stroke-width="1.2" d="M1157.91,-177.75C1186.61,-177.75 1209,-177.75 1209,-177.75 1209,-177.75 1209,-110.75 1209,-110.75 1209,-110.75 1254.54,-110.75 1254.54,-110.75"/>
<polygon fill="#16a34a" stroke="#16a34a" stroke-width="1.2" points="1254.54,-113.55 1262.54,-110.75 1254.54,-107.95 1254.54,-113.55"/>
</g>
<!-- r1 -->
<g id="node8" class="node">
<title>r1</title>
<path fill="#fdba74" stroke="#334155" stroke-width="1.2" d="M1416.37,-288C1416.37,-288 1283.77,-288 1283.77,-288 1277.77,-288 1271.77,-282 1271.77,-276 1271.77,-276 1271.77,-264 1271.77,-264 1271.77,-258 1277.77,-252 1283.77,-252 1283.77,-252 1416.37,-252 1416.37,-252 1422.37,-252 1428.37,-258 1428.37,-264 1428.37,-264 1428.37,-276 1428.37,-276 1428.37,-282 1422.37,-288 1416.37,-288"/>
<text xml:space="preserve" text-anchor="middle" x="1350.07" y="-264.4" font-family="Helvetica,sans-Serif" font-size="13.00">RoutingService.route()</text>
</g>
<!-- v2&#45;&gt;r1 -->
<g id="edge4" class="edge">
<title>v2&#45;&gt;r1</title>
<path fill="none" stroke="#475569" stroke-width="1.2" d="M1036,-204.23C1036,-228.93 1036,-270 1036,-270 1036,-270 1261.41,-270 1261.41,-270"/>
<polygon fill="#475569" stroke="#475569" stroke-width="1.2" points="1261.41,-272.8 1269.41,-270 1261.41,-267.2 1261.41,-272.8"/>
</g>
<!-- vcmp -->
<g id="node9" class="node">
<title>vcmp</title>
<path fill="#e2e8f0" stroke="#334155" stroke-width="1.2" d="M1443,-39C1443,-39 1257.15,-39 1257.15,-39 1251.15,-39 1245.15,-33 1245.15,-27 1245.15,-27 1245.15,-15 1245.15,-15 1245.15,-9 1251.15,-3 1257.15,-3 1257.15,-3 1443,-3 1443,-3 1449,-3 1455,-9 1455,-15 1455,-15 1455,-27 1455,-27 1455,-33 1449,-39 1443,-39"/>
<text xml:space="preserve" text-anchor="middle" x="1350.07" y="-15.4" font-family="Helvetica,sans-Serif" font-size="13.00">ValuationComparator.compare()</text>
</g>
<!-- v2&#45;&gt;vcmp -->
<g id="edge5" class="edge">
<title>v2&#45;&gt;vcmp</title>
<path fill="none" stroke="#475569" stroke-width="1.2" d="M1158.34,-186.5C1207.18,-186.5 1252,-186.5 1252,-186.5 1252,-186.5 1252,-49.16 1252,-49.16"/>
<polygon fill="#475569" stroke="#475569" stroke-width="1.2" points="1254.8,-49.16 1252,-41.16 1249.2,-49.16 1254.8,-49.16"/>
</g>
<!-- n1 -->
<g id="node10" class="node">
<title>n1</title>
<path fill="#fdba74" stroke="#334155" stroke-width="1.2" d="M1432.5,-205C1432.5,-205 1267.65,-205 1267.65,-205 1261.65,-205 1255.65,-199 1255.65,-193 1255.65,-193 1255.65,-181 1255.65,-181 1255.65,-175 1261.65,-169 1267.65,-169 1267.65,-169 1432.5,-169 1432.5,-169 1438.5,-169 1444.5,-175 1444.5,-181 1444.5,-181 1444.5,-193 1444.5,-193 1444.5,-199 1438.5,-205 1432.5,-205"/>
<text xml:space="preserve" text-anchor="middle" x="1350.07" y="-181.4" font-family="Helvetica,sans-Serif" font-size="13.00">NotificationService.publish()</text>
</g>
<!-- v2&#45;&gt;n1 -->
<g id="edge7" class="edge">
<title>v2&#45;&gt;n1</title>
<path fill="none" stroke="#475569" stroke-width="1.2" d="M1158.08,-195.25C1158.08,-195.25 1245.38,-195.25 1245.38,-195.25"/>
<polygon fill="#475569" stroke="#475569" stroke-width="1.2" points="1245.38,-198.05 1253.38,-195.25 1245.38,-192.45 1245.38,-198.05"/>
</g>
<!-- p1 -->
<g id="node5" class="node">
<title>p1</title>
<path fill="#93c5fd" stroke="#334155" stroke-width="1.2" d="M1161.15,-36C1161.15,-36 910.05,-36 910.05,-36 904.05,-36 898.05,-30 898.05,-24 898.05,-24 898.05,-12 898.05,-12 898.05,-6 904.05,0 910.05,0 910.05,0 1161.15,0 1161.15,0 1167.15,0 1173.15,-6 1173.15,-12 1173.15,-12 1173.15,-24 1173.15,-24 1173.15,-30 1167.15,-36 1161.15,-36"/>
<text xml:space="preserve" text-anchor="middle" x="1035.6" y="-12.4" font-family="Helvetica,sans-Serif" font-size="13.00">WorkflowExecution.processAssetContext()</text>
</g>
<!-- v3&#45;&gt;p1 -->
<g id="edge8" class="edge">
<title>v3&#45;&gt;p1</title>
<path fill="none" stroke="#475569" stroke-width="1.2" d="M826.4,-93.67C868.85,-93.67 906,-93.67 906,-93.67 906,-93.67 906,-46.13 906,-46.13"/>
<polygon fill="#475569" stroke="#475569" stroke-width="1.2" points="908.8,-46.13 906,-38.13 903.2,-46.13 908.8,-46.13"/>
</g>
<!-- a1 -->
<g id="node6" class="node">
<title>a1</title>
<path fill="#c4b5fd" stroke="#334155" stroke-width="1.2" d="M1141.65,-119C1141.65,-119 929.55,-119 929.55,-119 923.55,-119 917.55,-113 917.55,-107 917.55,-107 917.55,-95 917.55,-95 917.55,-89 923.55,-83 929.55,-83 929.55,-83 1141.65,-83 1141.65,-83 1147.65,-83 1153.65,-89 1153.65,-95 1153.65,-95 1153.65,-107 1153.65,-107 1153.65,-113 1147.65,-119 1141.65,-119"/>
<text xml:space="preserve" text-anchor="middle" x="1035.6" y="-95.4" font-family="Helvetica,sans-Serif" font-size="13.00">OfferAsyncExecutor.executeAsync()</text>
</g>
<!-- v3&#45;&gt;a1 -->
<g id="edge9" class="edge">
<title>v3&#45;&gt;a1</title>
<path fill="none" stroke="#475569" stroke-width="1.2" d="M826.45,-104.33C826.45,-104.33 907.29,-104.33 907.29,-104.33"/>
<polygon fill="#475569" stroke="#475569" stroke-width="1.2" points="907.29,-107.13 915.29,-104.33 907.29,-101.53 907.29,-107.13"/>
</g>
<!-- a1&#45;&gt;d1 -->
<g id="edge10" class="edge">
<title>a1&#45;&gt;d1</title>
<path fill="none" stroke="#16a34a" stroke-width="1.2" d="M1154.04,-102.5C1154.04,-102.5 1254.27,-102.5 1254.27,-102.5"/>
<polygon fill="#16a34a" stroke="#16a34a" stroke-width="1.2" points="1254.27,-105.3 1262.27,-102.5 1254.27,-99.7 1254.27,-105.3"/>
</g>
<!-- a1&#45;&gt;vcmp -->
<g id="edge11" class="edge">
<title>a1&#45;&gt;vcmp</title>
<path fill="none" stroke="#475569" stroke-width="1.2" d="M1154.16,-94.25C1203.28,-94.25 1249,-94.25 1249,-94.25 1249,-94.25 1249,-49.3 1249,-49.3"/>
<polygon fill="#475569" stroke="#475569" stroke-width="1.2" points="1251.8,-49.3 1249,-41.3 1246.2,-49.3 1251.8,-49.3"/>
</g>
</g>
</svg>
